<svg width="70" height="70" viewBox="0 0 70 70" fill="none" xmlns="http://www.w3.org/2000/svg">
<path d="M5.63415 54.0477C-4.35339 38.7562 -0.724756 18.0992 13.844 7.11544C18.8532 3.33889 24.4646 1.03158 30.6853 0.266032C46.4463 -1.6736 61.4095 7.14088 67.4363 21.8786C75.3842 41.3139 64.1168 63.7098 43.7882 68.8835C29.1031 72.6208 14.107 66.8003 5.63415 54.0477ZM5.06161 48.8654C11.0379 60.7187 20.6292 67.242 33.8955 67.9294C42.4215 68.3712 49.9965 65.5434 56.4868 59.984C67.0141 50.9665 70.742 36.3538 65.8771 23.4168C59.0426 5.24238 38.0891 -3.138 20.6147 5.31412C4.45555 13.1301 -2.49291 32.5041 5.06161 48.8654Z" fill="white"/>
<path d="M21.329 21.1343C21.0881 20.6601 20.6192 20.2703 20.9608 19.7095C21.2808 19.1842 21.8306 19.3383 22.3078 19.3361C24.2831 19.3267 26.2584 19.3328 28.2337 19.3346C28.4045 19.3348 28.6019 19.293 28.7393 19.3631C28.9189 19.4546 29.1477 19.6222 29.1752 19.7868C29.2005 19.9387 29.0256 20.2286 28.8733 20.286C28.2901 20.5057 27.6824 20.663 27.0803 20.8308C26.4053 21.0188 25.7264 21.1931 25.002 21.3859C25.0533 21.523 25.0813 21.6442 25.1403 21.7481C25.7839 22.8808 26.4231 24.0163 27.0843 25.1389C27.3468 25.5845 27.6715 25.844 28.2982 25.7626C33.2287 25.1225 38.1651 24.5269 43.0994 23.9159C43.1509 23.9096 43.1995 23.8802 43.3166 23.8365C42.5951 22.1911 41.8794 20.559 41.1502 18.896C42.2998 17.9323 43.6393 17.4417 45.0587 17.1337C45.4269 17.0537 45.8097 17.0299 46.1874 17.0055C48.1215 16.8808 49.1278 18.9002 48.7245 20.2801C48.5411 20.9075 48.171 21.2053 47.6882 21.0759C47.2277 20.9525 47.0743 20.5786 47.2199 19.934C47.4178 19.058 46.8553 18.3846 45.9768 18.5507C45.0176 18.732 44.08 19.0264 43.0479 19.2936C44.4289 22.4512 45.7532 25.4791 47.0704 28.4908C51.5242 27.408 55.1103 28.5827 57.6184 32.3854C59.6097 35.4046 59.3994 39.3264 57.3039 42.2345C55.0332 45.3858 51.2608 46.3687 48.7353 45.8646C48.7353 45.2743 48.7353 44.679 48.7353 44.0621C52.4367 44.3632 55.2264 43.005 56.6086 39.5232C57.7341 36.6881 57.032 34.0997 54.8619 31.9541C53.0156 30.1287 49.9991 29.4392 47.874 30.3211C48.3981 31.5256 48.9207 32.7307 49.4469 33.9343C49.8021 34.7469 50.1641 35.5565 50.5198 36.3688C50.8352 37.089 50.7577 37.5221 50.282 37.7317C49.8013 37.9436 49.4112 37.7002 49.1026 36.9962C48.292 35.1472 47.4817 33.298 46.67 31.4494C46.5954 31.2794 46.5115 31.1134 46.4166 30.9133C45.0732 31.6619 44.158 32.7602 43.4679 34.0837C42.9335 33.7167 42.4391 33.3771 41.9502 33.0413C42.4937 31.7235 43.421 30.7415 45.6439 29.1289C45.3188 28.3914 44.9889 27.6434 44.5769 26.7089C43.0104 28.3155 41.5202 29.8166 40.0668 31.3522C39.6664 31.7752 39.3067 31.9541 38.7414 31.6962C38.3869 31.5345 37.9824 31.4807 37.5396 31.3623C39.3656 29.4683 41.1564 27.6107 43.0592 25.6369C38.2193 26.2355 33.5439 26.8138 28.7749 27.4037C29.5947 28.8382 30.3686 30.1926 31.1702 31.5954C30.6263 31.7894 30.1009 31.9767 29.5133 32.1863C28.7226 30.8137 27.9272 29.433 27.0874 27.9754C26.2216 28.9513 25.3994 29.8781 24.6298 30.7457C25.2043 31.6755 25.7463 32.5701 26.3076 33.4526C26.5287 33.8004 26.4386 34.0106 26.1196 34.2392C25.7523 34.5023 25.4291 34.826 25.0513 35.1541C24.8142 34.6381 24.6165 34.1191 24.345 33.6415C24.0696 33.157 23.7214 32.7133 23.3629 32.1901C22.262 33.438 21.2176 34.6052 20.1955 35.7914C19.9338 36.0952 20.0816 36.2709 20.4625 36.2712C21.4311 36.2719 22.3998 36.2724 23.3684 36.2729C23.5546 36.273 23.7407 36.2729 24.0224 36.2729C23.6752 36.7819 23.3882 37.2364 23.0603 37.6595C22.9795 37.7637 22.7662 37.8042 22.6121 37.8082C21.9858 37.8245 21.3578 37.8357 20.7323 37.8077C20.3541 37.7908 20.1302 37.8912 19.9221 38.2384C19.4386 39.0451 18.5469 39.3866 17.6116 39.2119C16.7249 39.0463 16.052 38.3543 15.8643 37.4152C15.6932 36.5588 16.0485 35.6066 16.8629 35.1927C17.3363 34.9521 17.9387 34.9634 18.4822 34.8568C18.6841 34.8172 18.9584 34.8321 19.0722 34.7074C20.1042 33.5766 21.108 32.4204 22.12 31.2719C20.35 29.712 16.8262 29.2613 14.0926 31.0751C11.1657 33.0172 10.0514 36.7307 11.4735 39.9126C12.2804 41.7182 13.6356 42.9953 15.4939 43.7079C17.3302 44.412 19.169 44.3299 21.0161 43.568C21.0161 44.1817 21.0381 44.7433 20.9981 45.3004C20.9898 45.4172 20.7696 45.5706 20.6187 45.6179C16.8256 46.8071 12.411 45.1417 10.3927 41.7166C8.55568 38.5993 8.50557 35.4079 10.4237 32.3378C12.3543 29.2476 15.2716 27.8772 18.9233 28.1293C20.5509 28.2417 22.0126 28.8611 23.3783 29.8377C24.3076 28.7873 25.2502 27.7589 26.1327 26.682C26.2582 26.529 26.1731 26.0964 26.0478 25.8676C25.296 24.4957 24.504 23.1455 23.7141 21.7681C22.814 21.9584 21.8403 22.4459 21.329 21.1343Z" fill="white"/>
<path d="M43.6588 36.0425C46.9373 39.854 47.8776 44.1472 46.1481 48.8264C44.4365 53.4573 40.9731 56.1749 36.0986 56.8763C30.5295 57.6778 25.1453 54.5162 22.9793 49.3534C20.8084 44.179 22.33 38.2259 26.7183 34.7254C31.8316 30.6466 39.0409 31.1948 43.6588 36.0425ZM39.3038 35.728C37.8716 34.9272 36.3293 34.5037 34.6954 34.4806C28.6878 34.3953 24.0385 39.3954 24.5228 45.3977C25.0148 51.4959 31.1021 55.7974 36.9824 54.2021C40.9837 53.1166 43.8356 49.889 44.4073 45.799C44.9639 41.8178 42.9946 37.8886 39.3038 35.728Z" fill="white"/>
<path d="M36.2554 37.8658C36.0742 39.8968 35.9001 41.8761 35.7192 43.9314C37.1336 44.016 38.5162 44.0987 40 44.1874C37.8733 47.5242 35.8097 50.7621 33.746 54C33.6964 53.9886 33.6468 53.9771 33.5971 53.9656C33.821 51.4675 34.045 48.9693 34.2752 46.401C32.875 46.3159 31.5032 46.2326 30 46.1412C32.117 42.7078 34.1849 39.3539 36.2529 36C36.2979 36.0088 36.343 36.0177 36.388 36.0265C36.3461 36.6224 36.3042 37.2182 36.2554 37.8658Z" fill="white"/>
</svg>
