<svg width="23" height="30" viewBox="0 0 23 30" fill="none" xmlns="http://www.w3.org/2000/svg">
<path d="M11.917 7.5332C9.7844 7.33758 7.65729 8.0087 5.94238 9.42383C4.22669 10.8398 3.0425 12.9028 2.62305 15.2207C2.36972 16.6353 2.40793 18.094 2.73438 19.4902C3.27363 21.7776 4.56216 23.7624 6.34766 25.0684C8.13261 26.3737 10.2908 26.9115 12.4102 26.583C14.5299 26.2545 16.4699 25.0812 17.8574 23.2803C19.2453 21.4789 19.9814 19.1771 19.9199 16.8145C19.8584 14.4519 19.0041 12.2003 17.5254 10.4893C16.0472 8.77879 14.0499 7.72896 11.917 7.5332ZM11.1455 9.61426C11.4463 9.61426 11.7304 9.74606 11.9355 9.9707C12.1397 10.1945 12.2509 10.4934 12.251 10.8008V15.1943C12.5967 15.4329 12.8674 15.7773 13.0303 16.1816C13.212 16.6326 13.2511 17.1357 13.1416 17.6123C13.032 18.089 12.7792 18.5166 12.4189 18.8242C12.0582 19.1322 11.6097 19.3018 11.1455 19.3018C10.6815 19.3017 10.2337 19.1321 9.87305 18.8242C9.51275 18.5166 9.25996 18.0891 9.15039 17.6123C9.0409 17.1357 9.08003 16.6326 9.26172 16.1816C9.42465 15.7773 9.69521 15.4329 10.041 15.1943V10.8008C10.0411 10.4933 10.1522 10.1945 10.3564 9.9707C10.5615 9.74615 10.8448 9.61437 11.1455 9.61426ZM17.1807 5.45508C18.4387 4.77955 19.8696 4.85876 20.6807 5.89551C21.3421 6.74109 21.3768 7.97807 20.9424 9.10938L20.7842 9.52246L20.5117 9.17383C19.5301 7.91442 18.3991 6.80492 17.1494 5.87598L16.834 5.6416L17.1807 5.45508ZM1.61328 5.89551C2.4244 4.85864 3.85616 4.77934 5.11426 5.45508L5.45996 5.6416L5.14453 5.87598C3.89542 6.8058 2.76455 7.91517 1.78223 9.17383L1.70703 9.26953H1.41113L1.34961 9.1084C0.918356 7.9782 0.949198 6.7414 1.61328 5.89551ZM15.2588 2.74414C15.2588 2.97613 15.1751 3.20269 15.0195 3.37305C14.8633 3.54417 14.6458 3.64551 14.4141 3.64551H12.6709V5.27148C14.4465 5.54644 16.1325 6.29495 17.5791 7.45215C19.0844 8.65641 20.2808 10.2623 21.0547 12.1133C21.8284 13.964 22.1553 16.0002 22.0049 18.0273C21.8544 20.0547 21.2308 22.0072 20.1934 23.6982C19.1559 25.3894 17.738 26.7634 16.0732 27.6865C14.4082 28.6098 12.553 29.0513 10.6855 28.9658C8.8182 28.8803 7.00396 28.2708 5.41602 27.1992C3.82821 26.1276 2.51983 24.6299 1.61523 22.8506V22.8496C0.72786 21.0986 0.258563 19.132 0.25 17.1318C0.241465 15.1316 0.693998 13.1604 1.56641 11.4004C2.43883 9.64036 3.70353 8.14684 5.24609 7.06055C6.724 6.01984 8.411 5.38621 10.1621 5.21191V3.64551H8.41406C8.18369 3.64336 7.96814 3.54095 7.81348 3.37012C7.65964 3.20006 7.57616 2.97477 7.57617 2.74414V1.15039C7.57705 0.92017 7.66084 0.695068 7.81445 0.525391C7.96871 0.355097 8.18343 0.253195 8.41309 0.25H14.416C14.6468 0.251163 14.8628 0.352081 15.0186 0.522461C15.1737 0.69241 15.2579 0.918906 15.2588 1.15039V2.74414Z" fill="#EE3C08" stroke="#EE3C08" stroke-width="0.5"/>
</svg>
