<svg width="38" height="40" viewBox="0 0 38 40" fill="none" xmlns="http://www.w3.org/2000/svg">
<g clip-path="url(#clip0_30_734)">
<path d="M30.0355 4.38481C30.8918 4.96423 31.693 5.60551 32.4324 6.30863C35.8713 9.56384 37.9966 14.0593 37.9966 19.0267C37.9966 23.9942 35.8713 28.4896 32.4324 31.7448C28.9935 35 24.2443 37.0118 19 37.0118C16.5962 37.0118 14.299 36.5886 12.1806 35.8204L15.059 32.8125C16.3142 33.1348 17.6348 33.3041 19 33.3041C23.1645 33.3041 26.937 31.7058 29.6641 29.1211C32.3946 26.5365 34.0796 22.9688 34.0796 19.0267C34.0796 15.0847 32.3911 11.5137 29.6641 8.93233C29.0932 8.39197 28.4776 7.89718 27.8243 7.44796L30.0355 4.38481ZM6.25195 32.3633C6.0181 32.1615 5.78769 31.9564 5.56416 31.7448C2.12525 28.4896 0 23.9942 0 19.0267C0 14.0593 2.12525 9.56384 5.56416 6.30863C8.26715 3.75004 11.7783 1.95968 15.7055 1.31189L13.1779 5.85291C11.3519 6.57556 9.70805 7.63025 8.33249 8.93233C5.60199 11.517 3.91348 15.0847 3.91348 19.0267C3.91348 22.8744 5.51946 26.364 8.13303 28.9323L6.25195 32.3633Z" fill="#EE3C08"/>
<path fill-rule="evenodd" clip-rule="evenodd" d="M30.5892 0L19.5297 0.139974L8.87594 19.2839L16.132 19.3555L4.79395 40L30.3691 13.5286H20.8158L30.5892 0Z" fill="#EE3C08"/>
</g>
<defs>
<clipPath id="clip0_30_734">
<rect width="38" height="40" fill="white"/>
</clipPath>
</defs>
</svg>
