<svg width="15" height="15" viewBox="0 0 15 15" fill="none" xmlns="http://www.w3.org/2000/svg">
<path d="M9.02495 2.83547L9.43746 4.08547C9.62385 4.66403 10.1609 5.05734 10.7687 5.06047H12.0687C12.6784 5.0566 13.2205 5.44775 13.409 6.02757C13.5975 6.6074 13.3891 7.24256 12.8937 7.59797L11.825 8.37297C11.333 8.73013 11.1262 9.363 11.3125 9.94172L11.725 11.1917C11.929 11.7724 11.7298 12.4183 11.2341 12.7832C10.7385 13.1481 10.0626 13.1465 9.56871 12.7792L8.51871 11.998C8.0265 11.6414 7.36091 11.6414 6.86871 11.998L5.81871 12.7792C5.32754 13.1387 4.66039 13.1397 4.1682 12.7816C3.67602 12.4235 3.47159 11.7884 3.66246 11.2105L4.07496 9.96047C4.26118 9.38175 4.05443 8.74888 3.56246 8.39172L2.46871 7.60422C1.96327 7.24807 1.75132 6.60253 1.94728 6.0161C2.14324 5.42966 2.70069 5.04122 3.31871 5.06047H4.61871C5.2232 5.05912 5.7592 4.67159 5.94996 4.09797L6.36246 2.84797C6.54738 2.2706 7.08291 1.87786 7.68917 1.87502C8.29542 1.87217 8.83462 2.25986 9.02495 2.83547Z" fill="#FFAA72"/>
</svg>
