<svg width="15" height="15" viewBox="0 0 15 15" fill="none" xmlns="http://www.w3.org/2000/svg">
<path fill-rule="evenodd" clip-rule="evenodd" d="M6.32774 2.84386C6.50776 2.2616 7.04959 1.86731 7.65899 1.87511C8.27184 1.86896 8.81477 2.26915 8.99024 2.85636L9.40274 4.10636C9.58797 4.68488 10.1265 5.0768 10.734 5.07511H12.034C12.6557 5.05155 13.2184 5.44114 13.4152 6.03139C13.6119 6.62164 13.3955 7.27092 12.884 7.62511L11.8152 8.40636C11.3226 8.7602 11.1154 9.392 11.3027 9.96886L11.7152 11.2189C11.857 11.6516 11.7804 12.1262 11.5098 12.4924C11.2392 12.8586 10.808 13.0711 10.3527 13.0626C10.0575 13.0604 9.7707 12.9641 9.53399 12.7876L8.50899 12.0064C8.01743 11.6478 7.35056 11.6478 6.85899 12.0064L5.78399 12.7876C5.54444 12.9804 5.24766 13.0881 4.94024 13.0939C4.48167 13.0977 4.05004 12.8776 3.78372 12.5043C3.51741 12.131 3.44986 11.6512 3.60274 11.2189L4.01524 9.96886C4.21398 9.39373 4.01663 8.75616 3.52774 8.39386L2.45899 7.61261C1.9636 7.2572 1.75518 6.62204 1.9437 6.04222C2.13221 5.46239 2.6743 5.07124 3.28399 5.07511H4.58399C5.19482 5.07509 5.73446 4.67733 5.91524 4.09386L6.32774 2.84386ZM7.99024 3.16886C7.95181 3.0192 7.81331 2.91729 7.65899 2.92511C7.49701 2.91957 7.3557 3.03422 7.32774 3.19386L6.91524 4.44386C6.58741 5.45406 5.64605 6.138 4.58399 6.13761H3.25899C3.11172 6.14185 2.98287 6.23787 2.93669 6.37779C2.89052 6.5177 2.93692 6.67155 3.05274 6.76261L4.12149 7.54386C4.98354 8.16738 5.34466 9.27599 5.01524 10.2876L4.60274 11.5376C4.56223 11.6403 4.57886 11.7567 4.64649 11.8439C4.71663 11.9448 4.82991 12.0073 4.95274 12.0126C5.02776 12.0104 5.10006 11.9841 5.15899 11.9376L6.21524 11.1564C7.07613 10.5309 8.24186 10.5309 9.10274 11.1564L10.1465 11.9001C10.2054 11.9466 10.2777 11.9729 10.3527 11.9751C10.47 11.9675 10.5777 11.9079 10.6465 11.8126C10.7141 11.7254 10.7308 11.609 10.6902 11.5064L10.2777 10.2564C9.94832 9.24474 10.3094 8.13613 11.1715 7.51261L12.2402 6.73761C12.3561 6.64655 12.4025 6.4927 12.3563 6.35279C12.3101 6.21287 12.1813 6.11685 12.034 6.11261H10.734C9.67193 6.113 8.73057 5.42906 8.40274 4.41886L7.99024 3.16886Z" fill="#FFAA72"/>
</svg>
