<svg width="48" height="50" viewBox="0 0 48 50" fill="none" xmlns="http://www.w3.org/2000/svg">
<path d="M14.5416 34.7084H10.0016C8.28624 34.6629 6.92808 33.183 6.96164 31.3959V16.8126C6.92808 15.0255 8.28624 13.5456 10.0016 13.5001H21.4016C22.219 13.5001 22.8816 12.8099 22.8816 11.9584C22.8816 11.107 22.219 10.4168 21.4016 10.4168H10.0016C8.38578 10.4163 6.83805 11.0948 5.70872 12.2986C4.57939 13.5024 3.96393 15.1299 4.00164 16.8126V31.3959C3.96393 33.0787 4.57939 34.7061 5.70872 35.9099C6.83805 37.1138 8.38578 37.7922 10.0016 37.7918H14.5416C15.359 37.7918 16.0216 37.1015 16.0216 36.2501C16.0216 35.3987 15.359 34.7084 14.5416 34.7084Z" fill="#EE3C08"/>
<path fill-rule="evenodd" clip-rule="evenodd" d="M38.6816 16.2918H39.4016C41.294 16.2568 42.8579 17.8208 42.9016 19.7918V28.4168C42.8579 30.3877 41.294 31.9517 39.4016 31.9168H38.6616C38.471 35.2213 35.8397 37.7977 32.6616 37.7918H23.6016C22.7843 37.7918 22.1216 37.1015 22.1216 36.2501C22.1216 35.3987 22.7843 34.7084 23.6016 34.7084H32.6616C34.377 34.6629 35.7352 33.183 35.7016 31.3959V16.8126C35.7352 15.0255 34.377 13.5456 32.6616 13.5001H30.4016C29.5843 13.5001 28.9216 12.8099 28.9216 11.9584C28.9216 11.107 29.5843 10.4168 30.4016 10.4168H32.6816C35.8597 10.4108 38.491 12.9872 38.6816 16.2918ZM39.4016 28.7918C39.6816 28.7918 39.9016 28.6043 39.9016 28.4168V19.7918C39.9016 19.6043 39.6816 19.4168 39.4016 19.4168H38.7416V28.7918H39.4016Z" fill="#EE3C08"/>
<path d="M29.6016 23.9584C29.2379 23.0172 28.3752 22.3881 27.4016 22.3543H19.4016L27.7016 13.6876C28.3391 12.9946 28.3391 11.9014 27.7016 11.2084C27.3864 10.8789 26.9582 10.6937 26.5116 10.6937C26.0651 10.6937 25.6369 10.8789 25.3216 11.2084L15.6016 21.3959C14.8734 22.1437 14.6557 23.2782 15.0522 24.2601C15.4486 25.242 16.3792 25.8734 17.4016 25.8543H25.2816L16.9816 34.5209C16.6653 34.8493 16.4875 35.2953 16.4875 35.7605C16.4875 36.2257 16.6653 36.6717 16.9816 37.0001C17.2942 37.3256 17.7197 37.5059 18.1616 37.5001C18.6027 37.5013 19.0266 37.3217 19.3416 37.0001L29.0616 26.8751C29.8085 26.1156 30.0238 24.9528 29.6016 23.9584Z" fill="#EE3C08"/>
</svg>
